<?xml version="1.0" encoding="UTF-8" standalone="no"?>
<svg
   viewBox="0 0 135.85654 50"
   version="1.1"
   id="svg66"
   width="135.85654"
   height="50"
   xmlns="http://www.w3.org/2000/svg"
   xmlns:svg="http://www.w3.org/2000/svg">
  <defs
     id="defs4">
    <style
       id="style2">
      .cls-1 {
        fill: #fff;
      }

      .cls-2 {
        fill: #4e5aa4;
      }

      .cls-3 {
        fill: #decae3;
      }

      .cls-4 {
        fill: #726aad;
      }

      .cls-5 {
        fill: #ae9bca;
      }
    </style>
  </defs>
  <g
     id="AD"
     transform="matrix(0.23255502,0,0,0.23255502,-57.652492,-100.58015)">
    <g
       id="g63">
      <g
         id="g39">
        <g
           id="g21">
          <path
             class="cls-2"
             d="m 550.71,528.58 -2.29,-5.72 h -21.66 l -2.22,5.72 h -12.37 l 17.16,-45.51 H 546 l 17.16,45.51 z m -21.38,-16.45 16.38,-0.06 -7,-18.47 h -2.15 z"
             id="path9" />
          <path
             class="cls-2"
             d="m 612,528.58 h -38.2 v -45.51 h 12.45 v 34.2 H 612 Z"
             id="path11" />
          <path
             class="cls-2"
             d="m 659.17,528.58 -2.28,-5.72 h -21.67 l -2.22,5.72 h -12.37 l 17.16,-45.51 h 16.66 l 17.16,45.51 z m -21.38,-16.45 16.38,-0.06 -7,-18.47 H 645 Z"
             id="path13" />
          <path
             class="cls-2"
             d="m 682.27,528.58 v -45.51 h 12.44 c 0,0 25.17,27.17 25.17,27.83 v -27.83 h 12.44 v 45.51 h -12.44 c 0,0 -25.17,-27.58 -25.17,-28.21 v 28.21 z"
             id="path15" />
          <path
             class="cls-2"
             d="m 757.21,483.07 v 45.51 h -12.44 v -45.51 z"
             id="path17" />
          <path
             class="cls-2"
             d="m 805.6,528.58 -2.29,-5.72 h -21.66 l -2.22,5.72 h -12.37 l 17.16,-45.51 h 16.66 L 818,528.58 Z m -21.38,-16.45 16.38,-0.06 -7,-18.47 h -2.16 z"
             id="path19" />
        </g>
        <g
           id="g37">
          <path
             class="cls-2"
             d="m 539.33,551.36 c 13.8,0 24.95,10.2 24.95,22.69 0,12.49 -11.22,22.75 -25,22.75 -2.79,0 -5.58,0.06 -8.37,0.06 h -16.68 v -45.5 z m -12.66,11.31 v 22.88 h 12.59 c 6.93,0 12.58,-5.2 12.58,-11.5 0,-6.3 -5.65,-11.38 -12.58,-11.38 z"
             id="path23" />
          <path
             class="cls-2"
             d="m 587.37,551.36 v 45.5 h -12.44 v -45.5 z"
             id="path25" />
          <path
             class="cls-2"
             d="m 631.49,562.67 c -2.86,0 -5.65,0.06 -8.44,0.06 -6.93,0 -12.58,5.14 -12.58,11.44 0,6.3 5.65,11.45 12.58,11.45 h 12.59 v -12.31 h 12.44 v 23.55 H 623 c -13.8,0 -25,-10.14 -25,-22.69 0,-12.55 11.22,-22.75 25,-22.75 h 25 v 11.31 z"
             id="path27" />
          <path
             class="cls-2"
             d="m 671.87,551.36 v 45.5 h -12.44 v -45.5 z"
             id="path29" />
          <path
             class="cls-2"
             d="m 713.07,577.75 v 19.11 c -4.15,0 -8.29,0.07 -12.51,0.07 v -34.2 c -6.22,0 -12.52,-0.06 -18.74,-0.06 v -11.31 h 50 v 11.31 h -18.8 z"
             id="path31" />
          <path
             class="cls-2"
             d="M 771.33,596.86 769,591.14 h -21.63 l -2.21,5.72 H 732.79 L 750,551.36 h 16.66 l 17.16,45.5 z M 750,580.42 l 16.37,-0.07 -7,-18.46 h -2.15 z"
             id="path33" />
          <path
             class="cls-2"
             d="m 832.1,596.86 h -38.18 v -45.5 h 12.44 v 34.19 h 25.74 z"
             id="path35" />
        </g>
      </g>
      <g
         id="g61">
        <rect
           class="cls-3"
           x="279.39001"
           y="463.98999"
           width="152.03"
           height="152.03"
           transform="rotate(-45,355.40401,539.99684)"
           id="rect41" />
        <rect
           class="cls-2"
           x="336.39999"
           y="601.62"
           width="38.009998"
           height="38.009998"
           transform="rotate(-45,355.3988,620.619)"
           id="rect43" />
        <rect
           class="cls-4"
           x="309.51999"
           y="574.75"
           width="38.009998"
           height="38.009998"
           transform="rotate(-45,328.52885,593.7489)"
           id="rect45" />
        <rect
           class="cls-5"
           x="282.64999"
           y="547.87"
           width="38.009998"
           height="38.009998"
           transform="rotate(-45,301.64682,566.8738)"
           id="rect47" />
        <rect
           class="cls-5"
           x="336.39999"
           y="547.87"
           width="38.009998"
           height="38.009998"
           transform="rotate(-45,355.39894,566.87894)"
           id="rect49" />
        <rect
           class="cls-5"
           x="390.14999"
           y="547.87"
           width="38.009998"
           height="38.009998"
           transform="rotate(-45,409.15607,566.87201)"
           id="rect51" />
        <rect
           class="cls-4"
           x="363.26999"
           y="574.75"
           width="38.009998"
           height="38.009998"
           transform="rotate(-45,382.28097,593.75404)"
           id="rect53" />
        <rect
           class="cls-1"
           x="336.39999"
           y="494.12"
           width="38.009998"
           height="38.009998"
           transform="rotate(-45,355.40408,513.12681)"
           id="rect55" />
        <rect
           class="cls-1"
           x="363.26999"
           y="521"
           width="38.009998"
           height="38.009998"
           transform="rotate(-45,382.27404,539.99691)"
           id="rect57" />
        <rect
           class="cls-1"
           x="309.51999"
           y="521"
           width="38.009998"
           height="38.009998"
           transform="rotate(-45,328.53398,539.99677)"
           id="rect59" />
      </g>
    </g>
  </g>
</svg>
