<svg width="30" height="30" viewBox="0 0 30 30" fill="none" xmlns="http://www.w3.org/2000/svg">
<path d="M11.9375 8.5625C11.9375 7.61767 12.3128 6.71153 12.9809 6.04343C13.649 5.37533 14.5552 5 15.5 5C16.4448 5 17.351 5.37533 18.0191 6.04343C18.6872 6.71153 19.0625 7.61767 19.0625 8.5625M11.9375 8.5625H19.0625M11.9375 8.5625H8.375M19.0625 8.5625H22.625M8.375 8.5625H6M8.375 8.5625V21.625C8.375 22.2549 8.62522 22.859 9.07062 23.3044C9.51602 23.7498 10.1201 24 10.75 24H20.25C20.8799 24 21.484 23.7498 21.9294 23.3044C22.3748 22.859 22.625 22.2549 22.625 21.625V8.5625M22.625 8.5625H25" stroke="black" stroke-width="2" stroke-linecap="round" stroke-linejoin="round"/>
</svg>
