<svg width="30" height="30" viewBox="0 0 30 30" fill="none" xmlns="http://www.w3.org/2000/svg">
<path d="M15 6H8C7.46957 6 6.96086 6.21071 6.58579 6.58579C6.21071 6.96086 6 7.46957 6 8V22C6 22.5304 6.21071 23.0391 6.58579 23.4142C6.96086 23.7893 7.46957 24 8 24H22C22.5304 24 23.0391 23.7893 23.4142 23.4142C23.7893 23.0391 24 22.5304 24 22V15" stroke="black" stroke-width="2" stroke-linecap="round" stroke-linejoin="round"/>
<path d="M21.3751 5.62498C21.7729 5.22716 22.3125 5.00366 22.8751 5.00366C23.4377 5.00366 23.9773 5.22716 24.3751 5.62498C24.7729 6.02281 24.9964 6.56237 24.9964 7.12498C24.9964 7.68759 24.7729 8.22716 24.3751 8.62498L15.3621 17.639C15.1246 17.8762 14.8313 18.0499 14.5091 18.144L11.6361 18.984C11.55 19.0091 11.4588 19.0106 11.372 18.9883C11.2852 18.9661 11.2059 18.9209 11.1425 18.8575C11.0792 18.7942 11.034 18.7149 11.0117 18.6281C10.9895 18.5412 10.991 18.45 11.0161 18.364L11.8561 15.491C11.9506 15.169 12.1246 14.876 12.3621 14.639L21.3751 5.62498Z" stroke="black" stroke-width="2" stroke-linecap="round" stroke-linejoin="round"/>
</svg>
